<svg id="Iconly_Broken_Buy" data-name="Iconly/Broken/Buy" xmlns="http://www.w3.org/2000/svg" width="25" height="25" viewBox="0 0 25 25">
  <g id="Buy" transform="translate(2.083 2.083)">
    <path id="Buy-2" data-name="Buy" d="M15.792,19.225a1.578,1.578,0,1,1,1.577,1.609A1.6,1.6,0,0,1,15.792,19.225Zm-11.722,0a1.578,1.578,0,1,1,1.578,1.609A1.6,1.6,0,0,1,4.071,19.225Zm1.753-3.3a2.666,2.666,0,0,1-2.651-2.488L2.221,1.86.648,1.583A.8.8,0,0,1,.011.661a.784.784,0,0,1,.9-.651L3.083.395a.79.79,0,0,1,.644.719l1,12.2a1.1,1.1,0,0,0,1.094,1.026H17.189a1.111,1.111,0,0,0,1.087-.959L19.264,6.4a.631.631,0,0,0-.143-.5.606.606,0,0,0-.466-.217H7.463a.8.8,0,0,1,0-1.595H18.655a2.158,2.158,0,0,1,1.647.769,2.251,2.251,0,0,1,.509,1.773L19.822,13.6a2.691,2.691,0,0,1-2.632,2.325Zm6.807-6.315a.8.8,0,0,1,0-1.595H15.52a.8.8,0,0,1,0,1.595Z" transform="translate(0 0)" fill="#cac7ce"/>
  </g>
</svg>
