<svg id="Iconly_Broken_Home" data-name="Iconly/Broken/Home" xmlns="http://www.w3.org/2000/svg" width="25" height="25" viewBox="0 0 25 25">
  <g id="Home" transform="translate(2.604 2.087)">
    <path id="Home-2" data-name="Home" d="M4.085,20.666A4.094,4.094,0,0,1,0,16.581v-8.3A3.151,3.151,0,0,1,1.223,5.838l.752-.562a.816.816,0,0,1,.942,1.3l-.733.544A1.531,1.531,0,0,0,1.63,8.284v8.288a2.463,2.463,0,0,0,2.454,2.445H8.252v.019a.815.815,0,0,1,0,1.63Zm9.584-.009a1.983,1.983,0,0,1-1.984-1.974v-3.75a.525.525,0,0,0-.526-.525H8.442a.525.525,0,0,0-.526.534v1.431a.815.815,0,1,1-1.63,0V14.942a2.167,2.167,0,0,1,2.165-2.166h2.718a2.166,2.166,0,0,1,2.156,2.166v3.741a.344.344,0,0,0,.344.344h1.856a2.446,2.446,0,0,0,2.446-2.446v-8.3a1.532,1.532,0,0,0-.579-1.178l-6.26-4.991a2.137,2.137,0,0,0-2.717,0L6.4,3.619A.831.831,0,1,1,5.435,2.27L7.418.829a3.76,3.76,0,0,1,4.71,0l6.26,4.991a3.179,3.179,0,0,1,1.186,2.446l-.008,8.306a4.085,4.085,0,0,1-4.086,4.085Z" transform="translate(0 0)" fill="#47292a"/>
  </g>
</svg>
