<svg id="Iconly_Broken_Search" data-name="Iconly/Broken/Search" xmlns="http://www.w3.org/2000/svg" width="25" height="25" viewBox="0 0 25 25">
  <g id="Search" transform="translate(2.083 2.083)">
    <path id="Search-2" data-name="Search" d="M20.579,19.382,17,15.881h0l-.084-.128a.843.843,0,0,0-1.184,0h0a8.451,8.451,0,0,1-10.957.355A8,8,0,0,1,3,5.531a8.412,8.412,0,0,1,10.5-3.092,8.064,8.064,0,0,1,4.494,9.777.811.811,0,0,0,.189.8.856.856,0,0,0,.807.242A.836.836,0,0,0,19.6,12.7h0A9.723,9.723,0,0,0,14.392.98,10.16,10.16,0,0,0,1.759,4.256a9.642,9.642,0,0,0,1.417,12.7,10.2,10.2,0,0,0,13.057.537l3.17,3.1a.853.853,0,0,0,1.184,0,.817.817,0,0,0,0-1.167h0Z" transform="translate(0 0)" fill="#cac7ce"/>
  </g>
</svg>
